<?xml version="1.0" encoding="utf-8"?>
<!-- Generator: Adobe Illustrator 21.0.0, SVG Export Plug-In . SVG Version: 6.00 Build 0)  -->
<svg version="1.1" id="Layer_1" xmlns="http://www.w3.org/2000/svg"  x="0px" y="0px"
	 viewBox="0 0 143 49" style="enable-background:new 0 0 143 49;" xml:space="preserve">
<style type="text/css">
	.st0{fill:#0082BB;}
</style>
<title>Logo</title>
<desc>Created with Sketch.</desc>
<g>
	<path class="st0" d="M43.5,12.9c-1.8,0-4.7,0.5-6.9,2V5.4c0-0.9-0.5-1.4-1.3-1.4h-4.9C29.5,4,29,4.4,29,5.4v32.3
		c0,0.9,0.5,1.4,1.3,1.4h4.9c0.9,0,1.3-0.5,1.3-1.4V22c0-1.8,2.3-3,4.7-3c1.5,0,2.6,0.3,3.3,1c0.6,0.6,0.9,1.5,0.9,2.7v15
		c0,0.9,0.5,1.4,1.3,1.4h4.9c0.9,0,1.3-0.5,1.3-1.4V22.7C53,15.9,48.9,12.9,43.5,12.9z"/>
	<path class="st0" d="M15.2,19.1c-5.7-1.8-6.6-2.9-6.6-4.8c0-1.9,1.8-2.8,4.9-2.8c2.9,0,6.8,0.9,8.1,1.2c1,0.2,1.5-0.3,1.5-1.1V8.2
		c0-0.7-0.2-1.4-1.3-1.7c-2.4-0.8-5.4-1.3-9.2-1.3C6.8,5.2,0.7,7.7,0.7,14.9c0,5.3,3.2,8.3,10.3,10.5c5.1,1.6,6.8,3.1,6.8,5.1
		c0,2.2-1.9,3.4-6.1,3.4c-4.4,0-8.5-1.7-10.1-2.1c-1-0.3-1.5,0.2-1.5,1v3.9c0,1.1,0.8,1.5,1.6,1.8c0.2,0.1,4.6,1.9,10.1,1.9h0.1h0
		c9.3,0,13.9-3.9,13.9-10.3C25.7,23.1,21.1,21,15.2,19.1z"/>
	<path class="st0" d="M127.9,0.8c-0.3-0.2-0.8-0.4-1.3-0.4c-0.7,0-1.1,0.5-1.1,1.3v5.1c0,0.7,0.2,1,0.6,1.4c0,0,0.1,0.1,0.4,0.3
		c5.4,3.7,8.6,9.3,8.6,16.3c0,7-3.2,12.7-8.6,16.3c-0.2,0.2-0.4,0.3-0.4,0.3c-0.4,0.3-0.6,0.7-0.6,1.4v5.1c0,0.8,0.4,1.3,1.1,1.3
		c0.4,0,0.9-0.2,1.3-0.4c8.3-4.5,14.3-13.2,14.3-23.9C142.2,13.9,136.3,5.2,127.9,0.8z"/>
	<path class="st0" d="M67.5,13c-2.6,0-5.5,0.4-7.5,1.1c-0.8,0.2-1.3,0.7-1.3,1.7v3.1c0,0.7,0.4,1.3,1.7,1c1.5-0.3,4.1-0.9,6.6-0.9
		c3.2,0,4.9,1.5,4.9,3.9v0.9c-1.6-0.4-3.1-0.6-5-0.6c-6.7,0-10.9,3.1-10.9,8.7c0,4.8,3.6,8.2,10.7,8.2h0.1c0.6,0,0.8,0,1.3,0
		c3.8,0,8.3-1.2,9.5-1.5c0.5-0.1,1.4-0.4,1.4-1.5V24.1c0-4.2-0.7-6.6-2.5-8.3C74.8,14.1,71.8,13,67.5,13z M71.9,33.6
		c-0.4,0.1-2.3,0.6-4.4,0.6c-2.9,0-4.3-1.2-4.3-3c0-1.8,1.2-3.2,4.9-3.2c1.5,0,2.9,0.3,3.8,0.6V33.6z"/>
	<path class="st0" d="M118.6,14h-4.5c-0.9,0-1.4,0.5-1.4,1.4v14.9c0,1.7-1,3.4-3.7,3.4c-1.8,0-3.5-0.8-3.5-2.5V15.4
		c0-0.9-0.5-1.4-1.4-1.4h-4.5c-0.9,0-1.4,0.5-1.4,1.4v15.8c0,1.8-1.8,2.5-3.7,2.5c-2.7,0-3.5-1.6-3.5-3.4V15.4
		c0-0.9-0.5-1.4-1.4-1.4h-4.5c-0.9,0-1.4,0.5-1.4,1.4v15.5c0,5.9,4.2,9.1,10.3,9.1c3.8,0,6.4-1.4,7.7-2.4c1.3,1,3.7,2.4,7.4,2.4
		c6.1,0,10.6-2.5,10.6-9.1V15.4C120,14.5,119.5,14,118.6,14z"/>
</g>
</svg>
